<svg id="Capa_1" enable-background="new 0 0 512 512" height="512" viewBox="0 0 512 512" width="512" xmlns="http://www.w3.org/2000/svg"><g><path d="m497 327.25h-1v-263c0-24.813-20.187-45-45-45h-390c-24.813 0-45 20.187-45 45v263h-1c-8.284 0-15 6.716-15 15v45c0 3.978 1.58 7.793 4.394 10.606l30 30c2.813 2.813 6.628 4.394 10.606 4.394h68.416l-.706 4.233c-4.91 29.45 17.822 56.267 47.771 56.267h.753c17.877 0 33.96-9.929 41.974-25.912l17.091-34.088h71.471l16.645 33.291c8.237 16.475 24.797 26.709 43.217 26.709 14.227 0 27.661-6.224 36.859-17.077 16.808-19.83 10.054-41.897 10.096-43.423h68.413c3.979 0 7.794-1.581 10.606-4.394l30-30c2.813-2.813 4.394-6.628 4.394-10.606v-45c0-8.284-6.716-15-15-15zm-451-263c0-8.271 6.729-15 15-15h390c8.271 0 15 6.729 15 15v263h-85.659c-8.671-26.294-33.196-44.5-61.682-44.5h-125.263c-28.48 0-53.008 18.208-61.682 44.5h-85.714zm5.213 338-21.213-21.213v-23.787h95.915l-7.5 45zm300.417 60.5c-6.982 0-13.261-3.88-16.384-10.125l-20.791-41.583c-2.54-5.082-7.734-8.292-13.416-8.292h-90c-5.676 0-10.865 3.203-13.409 8.277l-21.241 42.365c-5.12 10.214-15.773 9.321-15.908 9.358-11.413 0-20.049-10.112-18.179-21.334 1.692-10.153 14.783-88.698 16.569-99.419 2.824-16.947 17.344-29.247 34.524-29.247h125.264c17.189 0 31.71 12.308 34.527 29.265l16.514 99.417c1.856 11.175-6.722 21.318-18.07 21.318zm130.37-81.713-21.213 21.213h-67.185l-7.475-45h95.873z"/><path d="m185.368 229.142c5.857 5.858 15.354 5.858 21.213 0 5.858-5.858 5.858-15.355 0-21.213l-19.4-19.401 19.458-19.394c5.868-5.848 5.884-15.346.035-21.213-5.849-5.868-15.347-5.884-21.213-.035l-30.1 30c-5.871 5.85-5.882 15.367-.018 21.23z"/><path d="m305.326 229.124c5.861 5.88 15.359 5.871 21.213.035l30.1-30c5.871-5.85 5.882-15.367.018-21.23l-30.024-30.025c-5.856-5.858-15.354-5.857-21.213 0-5.858 5.858-5.858 15.355 0 21.213l19.4 19.401-19.458 19.394c-5.869 5.847-5.884 15.345-.036 21.212z"/><path d="m240.995 241.026c5.967 0 11.609-3.585 13.946-9.468l30-75.545c3.057-7.699-.706-16.419-8.405-19.477-7.701-3.059-16.419.706-19.478 8.405l-30 75.545c-3.924 9.887 3.418 20.54 13.937 20.54z"/><circle cx="210.939" cy="357.75" r="15"/><circle cx="300.939" cy="357.75" r="15"/></g></svg>